# xmcd
#
# Track frame offsets:
# 150
# 18786
# 33284
# 48658
# 64795
# 76025
# 92794
# 95677
# 112662
# 130875
# 144269
# 158548
# 177122
# 189739
# 209177
# 225342
#
# Disc length: 3188 seconds
#
#
# Revision: 1
# Processed by: cddbd v1.4PL0 Copyright (c) Steve Scherf et al.
# Submitted via: FreeRIP 2.00 
#
DISCID=c60c7210
DTITLE=West Rocky - Me Faz Bem 
DYEAR=1998
DGENRE=Country
TTITLE0=Quando o Amor se Vai ( Tell Me Why )
TTITLE1=Me Faz Bem ( It's Allright ) 
TTITLE2=Três Whiskys ( Brain In a Jair )
TTITLE3=I Fell Lucky
TTITLE4=Sold
TTITLE5=Ainda Importa pra Mim (It Matters To Me )
TTITLE6=Introdução  - Asa Branca
TTITLE7=Asa Branca
TTITLE8=No Seu Coração ( Border Town )
TTITLE9=A Malvada ( Esa Malvada )
TTITLE10=Better Things To Do
TTITLE11=O Trem
TTITLE12=Little Bitty
TTITLE13=Rumos Perdidos ( Lost In Love )
TTITLE14=Mesmo de Brincadeira
TTITLE15=We've Just Began
EXTD=Submitted by Top's - from Brazil to World 
EXTT0=
EXTT1=
EXTT2=
EXTT3=
EXTT4=
EXTT5=
EXTT6=
EXTT7=
EXTT8=
EXTT9=
EXTT10=
EXTT11=
EXTT12=
EXTT13=
EXTT14=
EXTT15=
PLAYORDER=
